<svg width="380" height="95" xmlns="http://www.w3.org/2000/svg" xmlns:svg="http://www.w3.org/2000/svg" class="abs tlbr ww hh">
 <g>
  <title>Layer 1</title>
  <g id="svg_10" transform="matrix(2.5892316028175233,0,0,2.5892316028175233,10.220365146695832,206.7592947757169) ">
   <g id="svg_11">
    <rect fill="transparent" transform="matrix(0.3970340237176603,0,0,0.3970339451533041,69.01233532320921,58.5300540453341) " x="-182.68762" y="-345.80582" width="100.02605" height="86.7518" id="svg_12"/>
    <g transform="matrix(0.3970340237176603,0,0,0.3970339451533041,69.01233532320921,58.5300540453341) " id="svg_13">
     <g id="svg_14">
      <rect fill="transparent" x="-169.1694" y="-345.80582" width="77.46893" height="86.7518" id="svg_15"/>
      <g id="svg_16">
       <defs transform="translate(-2.842170943040401e-14,1.5860061645507812) translate(-0.5286686420440674,-4.2293500900268555) translate(-2.842170943040401e-14,3.1720123291015625) translate(-14.274053573608398,-14.274056434631348) translate(-38.21519088745117,-198.02420043945312) translate(-2.842170943040401e-14,0.8685271739959717) translate(-244.9246368408203,-222.34295654296875) translate(-85.11564636230469,220.60592651367188) translate(0.8685269951820374,0) ">
        <linearGradient x1="0" y1="0" x2="0" y2="1" id="gradient19" gradientTransform="rotate(-180 .5 .5)">
         <stop offset="0" stop-color="#7F53FF"/>
         <stop offset="1" stop-color="#FFB82E"/>
        </linearGradient>
       </defs>
       <path fill="url(#gradient19)" d="m-95.37585,-297.70491q4.85,-16.15 3.3,-21.45q-1.6,-5.4 -15,-15.85q-14.1,-10.9 -21.65,-10.8q-6.6,0.1 -15.6,7.95q-12.05,11.4 -21.05,18.7q-8.4,6.85 1.8,31q3.6,8.6 8.75,17.35q4.4,7.5 6.8,10.25q3.6,4.1 20,-3q14.35,-6.15 21.95,-12.55q5.65,-4.7 10.7,-21.6z" id="svg_17"/>
      </g>
     </g>
     <g id="svg_18">
      <rect fill="transparent" x="-160.52585" y="-317.80491" width="68.7" height="56.85" id="svg_19"/>
      <g id="svg_20">
       <defs transform="translate(-2.842170943040401e-14,1.5860061645507812) translate(-0.5286686420440674,-4.2293500900268555) translate(-2.842170943040401e-14,3.1720123291015625) translate(-14.274053573608398,-14.274056434631348) translate(-38.21519088745117,-198.02420043945312) translate(-2.842170943040401e-14,0.8685271739959717) translate(-244.9246368408203,-222.34295654296875) translate(-85.11564636230469,220.60592651367188) translate(0.8685269951820374,0) ">
        <linearGradient x1="0" y1="0" x2="0" y2="1" id="gradient20" gradientTransform="rotate(-180 .5 .5)">
         <stop offset="0" stop-color="#FFFFFF"/>
         <stop offset="1" stop-color="#FFFFFF"/>
        </linearGradient>
       </defs>
       <path fill="url(#gradient20)" d="m-91.82585,-316.55491l-0.05,-1.25l-16.8,7.65l-0.45,-0.1l-0.05,0.3l-16.85,6.9l-12.6,-0.05l-1.45,-12.8l-1.1,0.1l1.45,12.7l-0.5,0l0.45,0.7l-8.2,22.4l-10.85,-5.55l-1.7,4.15l0.65,1.35l1.6,-3.95l9.15,4.65l-8.85,2.95l0.55,1l9.2,-3.05l0,17.5l13.2,-7.05l4.95,5.35l1.1,-0.45l-5.2,-5.65l8.45,-14.35l6,6.3l-4.25,11.45l1.45,-0.75l3.75,-10.1l5.25,5.25l0.95,-0.65l-5.7,-5.7l8.2,-17l7.95,13.1l0.6,-1.1l-7.3,-12.15l10.95,4.05l0.4,-1.05l-12.05,-4.45l1.35,-12.95l14.7,3.95l0.2,-1.05l-13.75,-3.75l15.2,-6.85m-46.25,14.55l12.15,0l14.7,6.6l-14.5,10.55l-12.35,-17.15m13.65,-0.55l15.15,-6.15l-1.3,12.4l-13.85,-6.25m-22.7,39.8l0,-15.3l11.25,9.25l-11.25,6.05m27.95,-15.4l-0.05,-0.05l-0.1,0.25l-5.65,-6l13.4,-9.8l-7.6,15.6m-7.75,-5.1l-8.1,13.7l-11.35,-9.4l19.45,-4.3m-12.05,-18.1l12.2,16.95l-20,4.4l7.8,-21.35z" id="svg_21"/>
      </g>
     </g>
     <g id="svg_22">
      <rect fill="transparent" x="-157.47586" y="-315.35491" width="5.9" height="6" id="svg_23"/>
      <g id="svg_24">
       <defs transform="translate(-2.842170943040401e-14,1.5860061645507812) translate(-0.5286686420440674,-4.2293500900268555) translate(-2.842170943040401e-14,3.1720123291015625) translate(-14.274053573608398,-14.274056434631348) translate(-38.21519088745117,-198.02420043945312) translate(-2.842170943040401e-14,0.8685271739959717) translate(-244.9246368408203,-222.34295654296875) translate(-85.11564636230469,220.60592651367188) translate(0.8685269951820374,0) ">
        <linearGradient x1="0" y1="0" x2="0" y2="1" id="gradient21" gradientTransform="rotate(-180 .5 .5)">
         <stop offset="0" stop-color="#FFFFFF"/>
         <stop offset="1" stop-color="#FFFFFF"/>
        </linearGradient>
       </defs>
       <path fill="url(#gradient21)" d="m-152.42585,-310.25491q0.85,-0.9 0.85,-2.1q0,-1.2 -0.85,-2.1q-0.85,-0.9 -2.05,-0.9q-1.25,0 -2.15,0.9q-0.85,0.9 -0.85,2.1q0,1.3 0.85,2.1q0.9,0.9 2.15,0.9q1.2,0 2.05,-0.9z" id="svg_25"/>
      </g>
     </g>
     <g id="svg_26">
      <rect fill="transparent" x="-149.62585" y="-286.10491" width="26" height="9.15" id="svg_27"/>
      <g id="svg_28">
       <defs transform="translate(-2.842170943040401e-14,1.5860061645507812) translate(-0.5286686420440674,-4.2293500900268555) translate(-2.842170943040401e-14,3.1720123291015625) translate(-14.274053573608398,-14.274056434631348) translate(-38.21519088745117,-198.02420043945312) translate(-2.842170943040401e-14,0.8685271739959717) translate(-244.9246368408203,-222.34295654296875) translate(-85.11564636230469,220.60592651367188) translate(0.8685269951820374,0) ">
        <linearGradient x1="0" y1="0" x2="0" y2="1" id="gradient22" gradientTransform="rotate(-180 .5 .5)">
         <stop offset="0" stop-color="#FFFFFF"/>
         <stop offset="1" stop-color="#FFFFFF"/>
        </linearGradient>
       </defs>
       <path fill="url(#gradient22)" d="m-124.17585,-282.70491q0.55,-0.6 0.55,-1.4q0,-0.85 -0.55,-1.4q-0.6,-0.6 -1.4,-0.6q-0.85,0 -1.4,0.6q-0.6,0.55 -0.6,1.4q0,0.8 0.6,1.4q0.55,0.6 1.4,0.6q0.8,0 1.4,-0.6m-21.85,5.05q0.7,-0.6 0.7,-1.5q0,-0.85 -0.7,-1.45q-0.6,-0.7 -1.5,-0.7q-0.85,0 -1.5,0.7q-0.6,0.6 -0.6,1.45q0,0.9 0.6,1.5q0.65,0.7 1.5,0.7q0.9,0 1.5,-0.7z" id="svg_29"/>
      </g>
     </g>
     <g id="svg_30">
      <rect fill="transparent" x="-112.57586" y="-312.35491" width="6.7" height="19.5" id="svg_31"/>
      <g id="svg_32">
       <defs transform="translate(-2.842170943040401e-14,1.5860061645507812) translate(-0.5286686420440674,-4.2293500900268555) translate(-2.842170943040401e-14,3.1720123291015625) translate(-14.274053573608398,-14.274056434631348) translate(-38.21519088745117,-198.02420043945312) translate(-2.842170943040401e-14,0.8685271739959717) translate(-244.9246368408203,-222.34295654296875) translate(-85.11564636230469,220.60592651367188) translate(0.8685269951820374,0) ">
        <linearGradient x1="0" y1="0" x2="0" y2="1" id="gradient23" gradientTransform="rotate(-180 .5 .5)">
         <stop offset="0" stop-color="#FFFFFF"/>
         <stop offset="1" stop-color="#FFFFFF"/>
        </linearGradient>
       </defs>
       <path fill="url(#gradient23)" d="m-108.47585,-296.95491q-0.7,-0.7 -1.7,-0.7q-1,0 -1.65,0.7q-0.75,0.75 -0.75,1.75q0,1 0.75,1.7q0.65,0.65 1.65,0.65q1,0 1.7,-0.65q0.7,-0.7 0.7,-1.7q0,-1 -0.7,-1.75m1.85,-10.65q0.75,-0.8 0.75,-2q0,-1.1 -0.75,-1.9q-0.85,-0.85 -2,-0.85q-1.15,0 -2,0.85q-0.85,0.8 -0.85,1.9q0,1.2 0.85,2q0.85,0.85 2,0.85q1.15,0 2,-0.85z" id="svg_33"/>
      </g>
     </g>
     <g id="svg_34">
      <rect fill="transparent" x="-143.42586" y="-317.75491" width="8.5" height="19.5" id="svg_35"/>
      <g id="svg_36">
       <defs transform="translate(-2.842170943040401e-14,1.5860061645507812) translate(-0.5286686420440674,-4.2293500900268555) translate(-2.842170943040401e-14,3.1720123291015625) translate(-14.274053573608398,-14.274056434631348) translate(-38.21519088745117,-198.02420043945312) translate(-2.842170943040401e-14,0.8685271739959717) translate(-244.9246368408203,-222.34295654296875) translate(-85.11564636230469,220.60592651367188) translate(0.8685269951820374,0) ">
        <linearGradient x1="0" y1="0" x2="0" y2="1" id="gradient24" gradientTransform="rotate(-180 .5 .5)">
         <stop offset="0" stop-color="#FFFFFF"/>
         <stop offset="1" stop-color="#FFFFFF"/>
        </linearGradient>
       </defs>
       <path fill="url(#gradient24)" d="m-139.07585,-314.05491q0.6,-0.65 0.6,-1.5q0,-0.9 -0.6,-1.5q-0.6,-0.7 -1.5,-0.7q-0.9,0 -1.55,0.7q-0.6,0.6 -0.6,1.5q0,0.85 0.6,1.5q0.65,0.65 1.55,0.65q0.9,0 1.5,-0.65m2.95,14.5q1.2,-1.2 1.2,-3q0,-1.75 -1.2,-3q-1.3,-1.25 -3,-1.25q-1.8,0 -3.05,1.25q-1.25,1.25 -1.25,3q0,1.8 1.25,3q1.25,1.3 3.05,1.3q1.7,0 3,-1.3z" id="svg_37"/>
      </g>
     </g>
     <g id="svg_38">
      <rect fill="transparent" x="-134.92586" y="-337.30491" width="22.35" height="12.75" id="svg_39"/>
      <g id="svg_40">
       <defs transform="translate(-2.842170943040401e-14,1.5860061645507812) translate(-0.5286686420440674,-4.2293500900268555) translate(-2.842170943040401e-14,3.1720123291015625) translate(-14.274053573608398,-14.274056434631348) translate(-38.21519088745117,-198.02420043945312) translate(-2.842170943040401e-14,0.8685271739959717) translate(-244.9246368408203,-222.34295654296875) translate(-85.11564636230469,220.60592651367188) translate(0.8685269951820374,0) ">
        <linearGradient x1="0" y1="0" x2="0" y2="1" id="gradient25" gradientTransform="rotate(-180 .5 .5)">
         <stop offset="0" stop-color="#FFFFFF"/>
         <stop offset="1" stop-color="#FFFFFF"/>
        </linearGradient>
       </defs>
       <path fill="url(#gradient25)" d="m-132.27585,-329.70491q1.15,0 1.9,-0.8q0.8,-0.75 0.8,-1.85q0,-1.15 -0.8,-1.9q-0.75,-0.8 -1.9,-0.8q-1.05,0 -1.85,0.8q-0.8,0.8 -0.8,1.9q0,1.1 0.8,1.85q0.8,0.8 1.85,0.8m17.35,4.5q0.65,-0.7 0.65,-1.65q0,-0.9 -0.65,-1.6q-0.7,-0.65 -1.65,-0.65q-0.95,0 -1.6,0.65q-0.65,0.7 -0.65,1.6q0,0.95 0.65,1.65q0.65,0.65 1.6,0.65q0.95,0 1.65,-0.65m1.85,-9.15q0.5,-0.5 0.5,-1.25q0,-0.7 -0.5,-1.2q-0.55,-0.5 -1.25,-0.5q-0.75,0 -1.25,0.5q-0.5,0.5 -0.5,1.2q0,0.75 0.5,1.25q0.5,0.5 1.25,0.5q0.7,0 1.25,-0.5z" id="svg_41"/>
      </g>
     </g>
     <g id="svg_42">
      <rect fill="transparent" x="-138.47586" y="-272.3549" width="7.15" height="7.2" id="svg_43"/>
      <g id="svg_44">
       <defs transform="translate(-2.842170943040401e-14,1.5860061645507812) translate(-0.5286686420440674,-4.2293500900268555) translate(-2.842170943040401e-14,3.1720123291015625) translate(-14.274053573608398,-14.274056434631348) translate(-38.21519088745117,-198.02420043945312) translate(-2.842170943040401e-14,0.8685271739959717) translate(-244.9246368408203,-222.34295654296875) translate(-85.11564636230469,220.60592651367188) translate(0.8685269951820374,0) ">
        <linearGradient x1="0" y1="0" x2="0" y2="1" id="gradient26" gradientTransform="rotate(-180 .5 .5)">
         <stop offset="0" stop-color="#FFFFFF"/>
         <stop offset="1" stop-color="#FFFFFF"/>
        </linearGradient>
       </defs>
       <path fill="url(#gradient26)" d="m-132.37585,-266.20491q1.05,-1.05 1.05,-2.55q0,-1.5 -1.05,-2.55q-1.05,-1.05 -2.55,-1.05q-1.45,0 -2.5,1.05q-1.05,1.05 -1.05,2.55q0,1.5 1.05,2.55q1.05,1.05 2.5,1.05q1.5,0 2.55,-1.05z" id="svg_45"/>
      </g>
     </g>
     <g id="svg_46">
      <rect fill="transparent" x="-87.13002" y="-319.55907" width="4.46844" height="4.46845" id="svg_47"/>
      <g id="svg_48">
       <defs transform="translate(-2.842170943040401e-14,1.5860061645507812) translate(-0.5286686420440674,-4.2293500900268555) translate(-2.842170943040401e-14,3.1720123291015625) translate(-14.274053573608398,-14.274056434631348) translate(-38.21519088745117,-198.02420043945312) translate(-2.842170943040401e-14,0.8685271739959717) translate(-244.9246368408203,-222.34295654296875) translate(-85.11564636230469,220.60592651367188) translate(0.8685269951820374,0) ">
        <linearGradient x1="0" y1="0" x2="0" y2="1" id="gradient27" gradientTransform="rotate(-180 .5 .5)">
         <stop offset="0" stop-color="#FBACA4"/>
         <stop offset="1" stop-color="#FBACA4"/>
        </linearGradient>
       </defs>
       <path fill="url(#gradient27)" d="m-86.62585,-315.95491q0.55,0.7 1.5,0.85q0.9,0.1 1.7,-0.5q0.7,-0.6 0.75,-1.5q0.1,-0.9 -0.5,-1.65q-0.6,-0.7 -1.5,-0.8q-0.9,-0.05 -1.6,0.5q-0.7,0.6 -0.85,1.5q-0.05,0.85 0.5,1.6z" id="svg_49"/>
      </g>
     </g>
     <g id="svg_50">
      <rect fill="transparent" x="-182.68762" y="-284.26602" width="22.18529" height="19.08611" id="svg_51"/>
      <g id="svg_52">
       <defs transform="translate(-2.842170943040401e-14,1.5860061645507812) translate(-0.5286686420440674,-4.2293500900268555) translate(-2.842170943040401e-14,3.1720123291015625) translate(-14.274053573608398,-14.274056434631348) translate(-38.21519088745117,-198.02420043945312) translate(-2.842170943040401e-14,0.8685271739959717) translate(-244.9246368408203,-222.34295654296875) translate(-85.11564636230469,220.60592651367188) translate(0.8685269951820374,0) ">
        <linearGradient x1="0" y1="0" x2="0" y2="1" id="gradient28" gradientTransform="rotate(-180 .5 .5)">
         <stop offset="0" stop-color="#E998C1"/>
         <stop offset="1" stop-color="#E998C1"/>
        </linearGradient>
       </defs>
       <path fill="url(#gradient28)" d="m-180.02585,-278.35491q1.25,0.15 2.2,-0.6q0.9,-0.8 1.05,-2q0.15,-1.25 -0.65,-2.15q-0.75,-0.95 -1.95,-1.15q-1.25,-0.1 -2.2,0.7q-0.95,0.75 -1.1,2q-0.1,1.2 0.65,2.15q0.8,0.95 2,1.05m13.25,13.15q2.35,0.2 4.2,-1.2q1.75,-1.5 2.05,-3.85q0.2,-2.35 -1.3,-4.1q-1.45,-1.8 -3.75,-2.05q-2.35,-0.25 -4.1,1.2q-1.85,1.5 -2.05,3.85q-0.25,2.3 1.2,4.1q1.45,1.8 3.75,2.05z" id="svg_53"/>
      </g>
     </g>
    </g>
   </g>
  </g>
  <path fill="#4d4d4d" d="m127.44891,39.17262c0,-3.31717 -0.36857,-5.89719 -1.28998,-7.55577c-0.92144,-1.65858 -2.58002,-2.58002 -4.97575,-2.58002c-1.84288,0 -3.50147,0 -4.60718,0.1843c-0.73717,0 -1.10574,0.36857 -1.65858,0.36857c0,0 0,19.35012 0,19.35012c0,0 6.26576,0 6.26576,0c0.92141,0 1.84285,-0.18427 2.57999,-0.55284c0.73717,-0.36857 1.29001,-0.92144 1.84288,-1.65858c0.55287,-0.73714 0.92144,-1.65858 1.29001,-2.94859c0.36857,-1.29001 0.55284,-2.76429 0.55284,-4.60718c0,0 0,0 0,0m5.89719,-0.36857c0,2.58002 -0.18427,4.60718 -0.73714,6.45003c-0.55287,1.84288 -1.10571,3.50147 -2.21145,4.79148c-1.10571,1.29001 -2.21142,2.21142 -3.87,2.76429c-1.65858,0.55287 -3.68574,0.92144 -6.08149,0.92144c0,0 -5.52859,0 -5.52859,0c0,0 0,17.50727 0,17.50727c0,0 -5.71292,0 -5.71292,0c0,0 0,-46.44031 0,-46.44031c1.10574,0 2.21145,-0.1843 3.50147,-0.1843c1.10571,0 2.21145,-0.18427 3.50147,-0.18427c1.28998,0 2.76429,-0.1843 4.05431,-0.1843c2.58002,0 4.79145,0.36857 6.45003,1.10571c1.65858,0.73717 2.94859,1.84288 3.87004,3.1329c0.92144,1.29001 1.84285,2.94859 2.21145,4.60718c0.36857,1.65858 0.55284,3.68574 0.55284,5.71289c0,0 0,0 0,0m30.22306,32.43451c-0.36857,0 -0.55284,-0.1843 -1.10571,-0.1843c-0.55287,0 -0.92144,-0.18427 -1.47428,-0.36857c-0.55287,-0.1843 -0.92144,-0.73714 -1.29001,-1.10571c-0.36857,-0.36857 -0.92144,-0.92144 -1.10574,-1.65858c-0.92141,1.10571 -2.02715,2.21142 -3.31717,2.76429c-1.29001,0.55287 -3.13286,1.10571 -5.34432,1.10571c-1.10571,0 -2.58002,-0.18427 -3.68574,-0.36857c-1.10571,-0.18427 -2.21145,-0.73714 -3.13286,-1.47428c-0.92144,-0.73714 -1.65858,-1.84288 -2.21145,-3.1329c-0.55287,-1.29001 -0.92144,-2.94859 -0.92144,-4.97575c0,-3.50143 1.10574,-6.26576 3.1329,-8.10861c2.02715,-1.84288 4.97575,-2.94859 8.66148,-2.94859c0,0 5.34432,0 5.34432,0c0,0 0,-3.50147 0,-3.50147c0,-1.47428 -0.55287,-2.57999 -1.29001,-3.50143c-0.73714,-0.92144 -2.02715,-1.47431 -3.68574,-1.47431c-1.84288,0 -3.50147,0.1843 -4.97575,0.3686c-1.47431,0.18427 -3.1329,0.55284 -4.79148,1.10571c0,0 0,-4.79148 0,-4.79148c1.29001,-0.36857 2.76433,-0.73714 4.23861,-0.92141c1.47431,-0.1843 3.1329,-0.55287 4.79148,-0.55287c2.21142,0 3.87,0.36857 5.34432,0.73714c1.47428,0.36857 2.58002,1.10574 3.50143,2.02715c0.92144,0.92144 1.47431,2.02715 1.84288,3.31717c0.36857,1.29001 0.55287,3.1329 0.55287,4.97575c0,0 0,15.84869 0,15.84869c0,0.73714 0.36857,1.29001 0.73714,1.65858c0.36857,0.36857 1.10571,0.55287 2.21142,0.55287c0,0 0,4.60718 0,4.60718c0,0 -2.02715,0 -2.02715,0c0,0 0,0 0,0m-12.34722,-4.23861c1.10571,0 2.02715,-0.1843 2.76429,-0.55287c0.73717,-0.36857 1.47431,-0.73714 1.84288,-1.29001c0.36857,-0.55284 0.73714,-1.10571 0.92144,-1.65858c0.18427,-0.55284 0.36857,-0.92141 0.36857,-1.29001c0,0 0,-6.8186 0,-6.8186c0,0 -5.71289,0 -5.71289,0c-0.73717,0 -1.29001,0 -2.02715,0.18427c-0.73717,0.1843 -1.29001,0.55287 -1.84288,1.10574c-0.55287,0.55284 -0.92144,1.29001 -1.29001,2.02715c-0.36857,0.73714 -0.55287,1.65858 -0.55287,2.76429c0,2.02715 0.55287,3.50147 1.47431,4.23861c0.92144,0.73714 2.21145,1.29001 4.05431,1.29001c0,0 0,0 0,0m28.93304,-23.9573c0,0 0,20.27156 0,20.27156c0,0.36857 0.1843,0.73714 0.1843,1.10571c0,0.36857 0.18427,0.73714 0.36857,1.10571c0.1843,0.3686 0.73714,0.73717 1.10571,0.92144c0.36857,0.1843 0.92144,0.55287 1.65858,0.55287c1.10574,0 1.84288,-0.1843 2.58002,-0.36857c0.73714,-0.1843 1.29001,-0.1843 1.84288,-0.36857c0,0 0,4.60718 0,4.60718c-0.36857,0.18427 -1.29001,0.36857 -2.39576,0.55284c-1.10571,0.1843 -2.21142,0.36857 -3.31717,0.36857c-1.28998,0 -2.57999,-0.36857 -3.50143,-0.73714c-0.92144,-0.36857 -1.84288,-1.10571 -2.39572,-1.84285c-0.55287,-0.73717 -0.92144,-1.65858 -1.29001,-2.76433c-0.36857,-1.10571 -0.55287,-2.21142 -0.55287,-3.50143c0,0 0,-19.90299 0,-19.90299c0,0 -4.23861,0 -4.23861,0c0,0 0,-4.97575 0,-4.97575c0,0 4.23861,0 4.23861,0c0,0 0,-7.92434 0,-7.92434c0,0 5.71289,0 5.71289,0c0,0 0,7.92434 0,7.92434c0,0 7.74007,0 7.74007,0c0,0 0,4.97575 0,4.97575c0,0 -7.74007,0 -7.74007,0c0,0 0,0 0,0m14.92724,28.1959c0,0 0,-46.44031 0,-46.44031c0,0 5.52862,0 5.52862,0c0,0 0,15.66438 0,15.66438c1.10571,-0.92144 2.21145,-1.47431 3.50147,-2.02715c1.28998,-0.55287 2.76429,-0.92144 4.23857,-0.92144c1.84288,0 3.50147,0.1843 4.79148,0.73714c1.29001,0.55287 2.21142,1.29001 2.94859,2.21145c0.73714,0.92144 1.29001,2.21145 1.65858,3.68574c0.36857,1.47428 0.55284,3.13286 0.55284,5.16005c0,0 0,21.93014 0,21.93014c0,0 -5.52859,0 -5.52859,0c0,0 0,-22.48302 0,-22.48302c0,-2.02715 -0.36857,-3.68574 -1.10574,-4.79148c-0.73714,-1.10571 -2.21142,-1.65858 -4.42288,-1.65858c-0.92144,0 -1.84288,0.1843 -2.58002,0.55287c-0.73714,0.36857 -1.47428,0.92144 -2.02715,1.47431c-0.55287,0.55284 -1.10571,1.28998 -1.47428,1.84285c-0.36857,0.55287 -0.55287,1.29001 -0.55287,1.84288c0,0 0,23.22016 0,23.22016c0,0 -5.52862,0 -5.52862,0c0,0 0,0 0,0m40.17455,-28.38021c0,0 0,28.38021 0,28.38021c0,0 -5.71289,0 -5.71289,0c0,0 0,-28.38021 0,-28.38021c0,0 -4.23861,0 -4.23861,0c0,0 0,-4.79145 0,-4.79145c0,0 4.23861,0 4.23861,0c0,0 0,-5.16005 0,-5.16005c0,-2.94859 0.92144,-4.97575 2.39572,-6.45003c1.47431,-1.47431 3.50147,-2.21145 6.08149,-2.21145c1.47428,0 2.58002,0.1843 3.68574,0.36857c1.47428,0.36857 1.65858,0.36857 2.58002,0.55287c0,0 0,4.60718 0,4.60718c-0.73717,-0.1843 -1.47431,-0.1843 -2.39576,-0.36857c-0.92141,-0.1843 -1.84285,-0.3686 -2.94856,-0.3686c-1.10574,0 -2.21145,0.3686 -2.76433,0.92144c-0.55284,0.55287 -0.92144,1.47431 -0.92144,2.39572c0,0 0,5.71292 0,5.71292c0,0 7.92434,0 7.92434,0c0,0 0,4.79145 0,4.79145c0,0 -7.92434,0 -7.92434,0c0,0 0,0 0,0m13.45296,-12.16295c0,0 0,-5.89716 0,-5.89716c0,0 6.26576,0 6.26576,0c0,0 0,5.89716 0,5.89716c0,0 -6.26576,0 -6.26576,0c0,0 0,0 0,0m0.36857,40.54316c0,0 0,-33.17165 0,-33.17165c0,0 5.52862,0 5.52862,0c0,0 0,33.17165 0,33.17165c0,0 -5.52862,0 -5.52862,0c0,0 0,0 0,0m16.21726,0c0,0 0,-33.17165 0,-33.17165c0,0 4.60718,0 4.60718,0c0,0 0.55287,2.94859 0.55287,2.94859c2.21142,-2.21145 4.79145,-3.50147 8.10861,-3.50147c1.84288,0 3.50147,0.1843 4.79145,0.73714c1.29001,0.55287 2.21145,1.29001 2.94859,2.21145c0.73717,0.92144 1.29001,2.21145 1.65858,3.68574c0.36857,1.47428 0.55287,3.13286 0.55287,5.16005c0,0 0,21.93014 0,21.93014c0,0 -5.52862,0 -5.52862,0c0,0 0,-22.48302 0,-22.48302c0,-2.02715 -0.36857,-3.68574 -1.10571,-4.79148c-0.73714,-1.10571 -2.21145,-1.65858 -4.42288,-1.65858c-0.92144,0 -1.84288,0.1843 -2.58002,0.55287c-0.73714,0.36857 -1.47431,0.92144 -2.02715,1.47431c-0.55287,0.55284 -1.10574,1.28998 -1.47431,1.84285c-0.36857,0.55287 -0.55284,1.29001 -0.55284,1.84288c0,0 0,23.22016 0,23.22016c0,0 -5.52862,0 -5.52862,0c0,0 0,0 0,0m51.60036,0c0,0 -0.3686,-2.76433 -0.3686,-2.76433c-1.10571,1.10574 -2.21142,1.84288 -3.50143,2.39576c-1.29001,0.55284 -2.76429,0.92141 -4.42288,0.92141c-2.21145,0 -3.87004,-0.36857 -5.16005,-1.10571c-1.29001,-0.73714 -2.39572,-1.65858 -3.31717,-2.94859c-0.92144,-1.29001 -1.47428,-2.76429 -1.84288,-4.79145c-0.36857,-2.02715 -0.55284,-4.23861 -0.55284,-6.81863c0,-6.63433 1.29001,-11.24151 3.50143,-14.1901c2.21145,-2.94859 5.89719,-4.42288 11.05724,-4.42288c0.73714,0 1.47428,0.1843 2.02715,0.1843c0.55284,0 1.10571,0.18427 1.65858,0.18427c0,0 0,-13.08436 0,-13.08436c0,0 5.71289,0 5.71289,0c0,0 0,46.44031 0,46.44031c0,0 -4.79145,0 -4.79145,0c0,0 0,0 0,0m-7.1872,-4.23861c1.10571,0 2.02715,-0.1843 2.76429,-0.55287c0.73714,-0.36857 1.29001,-0.92144 1.84288,-1.47428c0.55284,-0.55287 1.10571,-1.10574 1.29001,-1.84288c0.18427,-0.73714 0.36857,-1.29001 0.36857,-1.84285c0,0 0,-18.61298 0,-18.61298c-0.55287,0 -1.10574,-0.1843 -1.84288,-0.1843c-0.73714,0 -1.47428,-0.1843 -2.58002,-0.1843c-1.65858,0 -2.76429,0.55287 -3.87,1.10574c-1.10574,0.55284 -1.84288,1.47428 -2.39572,2.76429c-0.55287,1.29001 -1.10574,2.58002 -1.29001,4.42288c-0.1843,1.84288 -0.36857,4.05434 -0.36857,6.26576c0,2.02715 0.18427,3.50147 0.36857,4.79148c0.18427,1.29001 0.55284,2.39572 1.10571,3.13286c0.55287,0.73714 1.10571,1.29001 1.84288,1.65858c0.73714,0.36857 1.65858,0.55287 2.76429,0.55287c0,0 0,0 0,0m27.09019,-10.32007c0,2.21142 0.18427,3.87 0.55284,5.16002c0.36857,1.29001 0.55287,2.58002 1.10574,3.31717c0.55284,0.73717 0.92141,1.29001 1.65858,1.47431c0.73714,0.18427 1.47428,0.36857 2.39572,0.36857c1.84285,0 3.50143,-0.1843 4.97575,-0.36857c1.47428,-0.1843 2.76429,-0.55287 3.87,-0.73714c0,0 0,4.79145 0,4.79145c-1.10571,0.36857 -2.39572,0.55287 -4.05431,0.73714c-1.65858,0.1843 -3.13286,0.36857 -4.23861,0.36857c-1.84285,0 -3.50143,-0.36857 -4.97575,-0.73714c-1.47428,-0.36857 -2.76429,-1.29001 -3.87,-2.39572c-1.10574,-1.10571 -1.65858,-2.94859 -2.21145,-5.16005c-0.55287,-2.21142 -0.92144,-5.16002 -0.92144,-8.84575c0,-3.1329 0.36857,-5.52862 0.92144,-7.74007c0.55287,-2.21142 1.10571,-4.05431 2.21145,-5.34432c1.10571,-1.29001 2.21142,-2.39572 3.68574,-2.94859c1.47428,-0.55284 3.31717,-1.10571 5.34432,-1.10571c3.87004,0 6.45003,1.29001 8.10861,3.87004c1.65858,2.57999 2.58002,5.89716 2.58002,10.32007c0,0 0,4.97575 0,4.97575c0,0 -17.13866,0 -17.13866,0c0,0 0,0 0,0m6.26573,-14.3744c-1.10571,0 -2.02715,0.1843 -2.76429,0.55287c-0.73714,0.36857 -1.29001,0.73714 -1.84285,1.47431c-0.55287,0.73714 -0.92144,1.84285 -1.10574,3.13286c-0.18427,1.29001 -0.55284,2.76429 -0.55284,4.60718c0,0 11.61008,0 11.61008,0c0,0 0,-1.65858 0,-1.65858c0,-2.58002 -0.3686,-4.42288 -1.10574,-5.89719c-0.73714,-1.47428 -2.21142,-2.21145 -4.23861,-2.21145c0,0 0,0 0,0m20.08729,28.93308c0,0 0,-33.17165 0,-33.17165c0,0 4.60718,0 4.60718,0c0,0 0.36857,3.31717 0.36857,3.31717c0.73714,-1.10574 1.65858,-2.02715 2.76429,-2.76433c1.10574,-0.73714 2.58002,-1.10571 4.23861,-1.10571c0.73714,0 1.47431,0.1843 2.02715,0.1843c0.55287,0 1.10574,0.18427 1.47431,0.18427c0,0 0,5.89719 0,5.89719c-0.55287,-0.1843 -1.29001,-0.1843 -2.02715,-0.36857c-0.73717,-0.1843 -1.47431,-0.1843 -2.02719,-0.1843c-1.10571,0 -2.02715,0.36857 -2.76429,0.73714c-0.73714,0.3686 -1.29001,0.92144 -1.84285,1.65858c-0.55287,0.73717 -0.73717,1.65858 -0.92144,2.58002c-0.1843,0.92144 -0.36857,1.65858 -0.36857,2.58002c0,0 0,20.45586 0,20.45586c0,0 -5.52862,0 -5.52862,0c0,0 0,0 0,0" id="svg_57"/>
 </g>
</svg>