<svg width="1280" height="720" xmlns="http://www.w3.org/2000/svg" xmlns:xlink="http://www.w3.org/1999/xlink">
 <!-- Created with SVG-edit - https://github.com/SVG-Edit/svgedit-->
 <title>PF_SCREENCASTS_POSTER</title>
 <defs>
  <symbol id="svg_55" class="abs tlbr ww hh">
   <g id="svg_59">
    <title>Layer 1</title>
    <g transform="matrix(2.5892316028175233,0,0,2.5892316028175233,10.220365146695832,206.7592947757169) " id="svg_1">
     <g id="svg_2">
      <rect y="-340.94207" x="-182.68762" width="100.02605" transform="matrix(0.3970340237176603,0,0,0.3970339451533041,69.01233532320921,58.5300540453341) " id="svg_54" height="86.7518" fill="transparent"/>
      <g transform="matrix(0.3970340237176603,0,0,0.3970339451533041,69.01233532320921,58.5300540453341) " id="svg_3">
       <g id="svg_49">
        <rect y="-340.94207" x="-169.1694" width="77.46893" id="svg_53" height="86.7518" fill="transparent"/>
        <g id="svg_50">

         <path id="svg_51" fill="url(#svg_52)" d="m-95.37585,-292.84116q4.85,-16.15 3.3,-21.45q-1.6,-5.4 -15,-15.85q-14.1,-10.9 -21.65,-10.8q-6.6,0.1 -15.6,7.95q-12.05,11.4 -21.05,18.7q-8.4,6.85 1.8,31q3.6,8.6 8.75,17.35q4.4,7.5 6.8,10.25q3.6,4.1 20,-3q14.35,-6.15 21.95,-12.55q5.65,-4.7 10.7,-21.6z"/>
        </g>
       </g>
       <g id="svg_44">
        <rect y="-312.94116" x="-160.52585" width="68.7" id="svg_48" height="56.85" fill="transparent"/>
        <g id="svg_45">

         <path id="svg_46" fill="url(#svg_47)" d="m-91.82585,-311.69116l-0.05,-1.25l-16.8,7.65l-0.45,-0.1l-0.05,0.3l-16.85,6.9l-12.6,-0.05l-1.45,-12.8l-1.1,0.1l1.45,12.7l-0.5,0l0.45,0.7l-8.2,22.4l-10.85,-5.55l-1.7,4.15l0.65,1.35l1.6,-3.95l9.15,4.65l-8.85,2.95l0.55,1l9.2,-3.05l0,17.5l13.2,-7.05l4.95,5.35l1.1,-0.45l-5.2,-5.65l8.45,-14.35l6,6.3l-4.25,11.45l1.45,-0.75l3.75,-10.1l5.25,5.25l0.95,-0.65l-5.7,-5.7l8.2,-17l7.95,13.1l0.6,-1.1l-7.3,-12.15l10.95,4.05l0.4,-1.05l-12.05,-4.45l1.35,-12.95l14.7,3.95l0.2,-1.05l-13.75,-3.75l15.2,-6.85m-46.25,14.55l12.15,0l14.7,6.6l-14.5,10.55l-12.35,-17.15m13.65,-0.55l15.15,-6.15l-1.3,12.4l-13.85,-6.25m-22.7,39.8l0,-15.3l11.25,9.25l-11.25,6.05m27.95,-15.4l-0.05,-0.05l-0.1,0.25l-5.65,-6l13.4,-9.8l-7.6,15.6m-7.75,-5.1l-8.1,13.7l-11.35,-9.4l19.45,-4.3m-12.05,-18.1l12.2,16.95l-20,4.4l7.8,-21.35z"/>
        </g>
       </g>
       <g id="svg_39">
        <rect y="-310.49116" x="-157.47586" width="5.9" id="svg_43" height="6" fill="transparent"/>
        <g id="svg_40">

         <path id="svg_41" fill="url(#svg_42)" d="m-152.42585,-305.39116q0.85,-0.9 0.85,-2.1q0,-1.2 -0.85,-2.1q-0.85,-0.9 -2.05,-0.9q-1.25,0 -2.15,0.9q-0.85,0.9 -0.85,2.1q0,1.3 0.85,2.1q0.9,0.9 2.15,0.9q1.2,0 2.05,-0.9z"/>
        </g>
       </g>
       <g id="svg_34">
        <rect y="-281.24116" x="-149.62585" width="26" id="svg_38" height="9.15" fill="transparent"/>
        <g id="svg_35">

         <path id="svg_36" fill="url(#svg_37)" d="m-124.17585,-277.84116q0.55,-0.6 0.55,-1.4q0,-0.85 -0.55,-1.4q-0.6,-0.6 -1.4,-0.6q-0.85,0 -1.4,0.6q-0.6,0.55 -0.6,1.4q0,0.8 0.6,1.4q0.55,0.6 1.4,0.6q0.8,0 1.4,-0.6m-21.85,5.05q0.7,-0.6 0.7,-1.5q0,-0.85 -0.7,-1.45q-0.6,-0.7 -1.5,-0.7q-0.85,0 -1.5,0.7q-0.6,0.6 -0.6,1.45q0,0.9 0.6,1.5q0.65,0.7 1.5,0.7q0.9,0 1.5,-0.7z"/>
        </g>
       </g>
       <g id="svg_29">
        <rect y="-307.49116" x="-112.57586" width="6.7" id="svg_33" height="19.5" fill="transparent"/>
        <g id="svg_30">

         <path id="svg_31" fill="url(#svg_32)" d="m-108.47585,-292.09116q-0.7,-0.7 -1.7,-0.7q-1,0 -1.65,0.7q-0.75,0.75 -0.75,1.75q0,1 0.75,1.7q0.65,0.65 1.65,0.65q1,0 1.7,-0.65q0.7,-0.7 0.7,-1.7q0,-1 -0.7,-1.75m1.85,-10.65q0.75,-0.8 0.75,-2q0,-1.1 -0.75,-1.9q-0.85,-0.85 -2,-0.85q-1.15,0 -2,0.85q-0.85,0.8 -0.85,1.9q0,1.2 0.85,2q0.85,0.85 2,0.85q1.15,0 2,-0.85z"/>
        </g>
       </g>
       <g id="svg_24">
        <rect y="-312.89116" x="-143.42586" width="8.5" id="svg_28" height="19.5" fill="transparent"/>
        <g id="svg_25">

         <path id="svg_26" fill="url(#svg_27)" d="m-139.07585,-309.19116q0.6,-0.65 0.6,-1.5q0,-0.9 -0.6,-1.5q-0.6,-0.7 -1.5,-0.7q-0.9,0 -1.55,0.7q-0.6,0.6 -0.6,1.5q0,0.85 0.6,1.5q0.65,0.65 1.55,0.65q0.9,0 1.5,-0.65m2.95,14.5q1.2,-1.2 1.2,-3q0,-1.75 -1.2,-3q-1.3,-1.25 -3,-1.25q-1.8,0 -3.05,1.25q-1.25,1.25 -1.25,3q0,1.8 1.25,3q1.25,1.3 3.05,1.3q1.7,0 3,-1.3z"/>
        </g>
       </g>
       <g id="svg_19">
        <rect y="-332.44116" x="-134.92586" width="22.35" id="svg_23" height="12.75" fill="transparent"/>
        <g id="svg_20">

         <path id="svg_21" fill="url(#svg_22)" d="m-132.27585,-324.84116q1.15,0 1.9,-0.8q0.8,-0.75 0.8,-1.85q0,-1.15 -0.8,-1.9q-0.75,-0.8 -1.9,-0.8q-1.05,0 -1.85,0.8q-0.8,0.8 -0.8,1.9q0,1.1 0.8,1.85q0.8,0.8 1.85,0.8m17.35,4.5q0.65,-0.7 0.65,-1.65q0,-0.9 -0.65,-1.6q-0.7,-0.65 -1.65,-0.65q-0.95,0 -1.6,0.65q-0.65,0.7 -0.65,1.6q0,0.95 0.65,1.65q0.65,0.65 1.6,0.65q0.95,0 1.65,-0.65m1.85,-9.15q0.5,-0.5 0.5,-1.25q0,-0.7 -0.5,-1.2q-0.55,-0.5 -1.25,-0.5q-0.75,0 -1.25,0.5q-0.5,0.5 -0.5,1.2q0,0.75 0.5,1.25q0.5,0.5 1.25,0.5q0.7,0 1.25,-0.5z"/>
        </g>
       </g>
       <g id="svg_14">
        <rect y="-267.49115" x="-138.47586" width="7.15" id="svg_18" height="7.2" fill="transparent"/>
        <g id="svg_15">

         <path id="svg_16" fill="url(#svg_17)" d="m-132.37585,-261.34116q1.05,-1.05 1.05,-2.55q0,-1.5 -1.05,-2.55q-1.05,-1.05 -2.55,-1.05q-1.45,0 -2.5,1.05q-1.05,1.05 -1.05,2.55q0,1.5 1.05,2.55q1.05,1.05 2.5,1.05q1.5,0 2.55,-1.05z"/>
        </g>
       </g>
       <g id="svg_9">
        <rect y="-314.69532" x="-87.13002" width="4.46844" id="svg_13" height="4.46845" fill="transparent"/>
        <g id="svg_10">

         <path id="svg_11" fill="url(#svg_12)" d="m-86.62585,-311.09116q0.55,0.7 1.5,0.85q0.9,0.1 1.7,-0.5q0.7,-0.6 0.75,-1.5q0.1,-0.9 -0.5,-1.65q-0.6,-0.7 -1.5,-0.8q-0.9,-0.05 -1.6,0.5q-0.7,0.6 -0.85,1.5q-0.05,0.85 0.5,1.6z"/>
        </g>
       </g>
       <g id="svg_4">
        <rect y="-279.40227" x="-182.68762" width="22.18529" id="svg_8" height="19.08611" fill="transparent"/>
        <g id="svg_5">

         <path id="svg_6" fill="url(#svg_7)" d="m-180.02585,-273.49116q1.25,0.15 2.2,-0.6q0.9,-0.8 1.05,-2q0.15,-1.25 -0.65,-2.15q-0.75,-0.95 -1.95,-1.15q-1.25,-0.1 -2.2,0.7q-0.95,0.75 -1.1,2q-0.1,1.2 0.65,2.15q0.8,0.95 2,1.05m13.25,13.15q2.35,0.2 4.2,-1.2q1.75,-1.5 2.05,-3.85q0.2,-2.35 -1.3,-4.1q-1.45,-1.8 -3.75,-2.05q-2.35,-0.25 -4.1,1.2q-1.85,1.5 -2.05,3.85q-0.25,2.3 1.2,4.1q1.45,1.8 3.75,2.05z"/>
        </g>
       </g>
      </g>
     </g>
    </g>
   </g>
  </symbol>
  <linearGradient y2="1" y1="0" x2="0" x1="0" id="svg_52" gradientTransform="rotate(-180 .5 .5)">
   <stop stop-opacity="0.5" stop-color="#7F53FF" offset="0"/>
   <stop stop-opacity="0.5" stop-color="#FFB82E" offset="1"/>
  </linearGradient>
  <linearGradient y2="1" y1="0" x2="0" x1="0" id="svg_47" gradientTransform="rotate(-180 .5 .5)">
   <stop stop-color="#FFFFFF" offset="0"/>
   <stop stop-color="#FFFFFF" offset="1"/>
  </linearGradient>
  <linearGradient y2="1" y1="0" x2="0" x1="0" id="svg_42" gradientTransform="rotate(-180 .5 .5)">
   <stop stop-color="#FFFFFF" offset="0"/>
   <stop stop-color="#FFFFFF" offset="1"/>
  </linearGradient>
  <linearGradient y2="1" y1="0" x2="0" x1="0" id="svg_37" gradientTransform="rotate(-180 .5 .5)">
   <stop stop-color="#FFFFFF" offset="0"/>
   <stop stop-color="#FFFFFF" offset="1"/>
  </linearGradient>
  <linearGradient y2="1" y1="0" x2="0" x1="0" id="svg_32" gradientTransform="rotate(-180 .5 .5)">
   <stop stop-color="#FFFFFF" offset="0"/>
   <stop stop-color="#FFFFFF" offset="1"/>
  </linearGradient>
  <linearGradient y2="1" y1="0" x2="0" x1="0" id="svg_27" gradientTransform="rotate(-180 .5 .5)">
   <stop stop-color="#FFFFFF" offset="0"/>
   <stop stop-color="#FFFFFF" offset="1"/>
  </linearGradient>
  <linearGradient y2="1" y1="0" x2="0" x1="0" id="svg_22" gradientTransform="rotate(-180 .5 .5)">
   <stop stop-color="#FFFFFF" offset="0"/>
   <stop stop-color="#FFFFFF" offset="1"/>
  </linearGradient>
  <linearGradient y2="1" y1="0" x2="0" x1="0" id="svg_17" gradientTransform="rotate(-180 .5 .5)">
   <stop stop-color="#FFFFFF" offset="0"/>
   <stop stop-color="#FFFFFF" offset="1"/>
  </linearGradient>
  <linearGradient y2="1" y1="0" x2="0" x1="0" id="svg_12" gradientTransform="rotate(-180 .5 .5)">
   <stop stop-opacity="0.5" stop-color="#FBACA4" offset="0"/>
   <stop stop-opacity="0.5" stop-color="#FBACA4" offset="1"/>
  </linearGradient>
  <linearGradient y2="1" y1="0" x2="0" x1="0" id="svg_7" gradientTransform="rotate(-180 .5 .5)">
   <stop stop-opacity="0.5" stop-color="#E998C1" offset="0"/>
   <stop stop-opacity="0.5" stop-color="#E998C1" offset="1"/>
  </linearGradient>
  <filter id="svg_58_blur">
   <feGaussianBlur stdDeviation="0" in="SourceGraphic"/>
  </filter>
 </defs>
 <g>
  <title>background</title>
  <rect fill="#e5e5e5" id="canvas_background" height="722" width="1282" y="-1" x="-1"/>
 </g>
 <g class="layer">
  <title>Layer 1</title>
  <use y="0" xlink:href="#svg_55" x="0" transform="matrix(7.41905,0,0,7.41905,257.55,-26.886) " id="svg_56"/>
  <g id="svg_57"/>
  <text filter="url(#svg_58_blur)" y="273.483058" xml:space="preserve" x="195.273073" transform="matrix(5.18112,0,0,5.18112,-371.728,-1013.92) " text-anchor="middle" stroke-width="0" stroke="#000000" id="svg_58" font-weight="bold" font-size="24" font-family="Oswald, sans-serif" fill="#000000">PATHFINDER 1.0.0</text>
 </g>
</svg>